<svg width="43" height="18" viewBox="0 0 43 18" fill="none" xmlns="http://www.w3.org/2000/svg">
<g opacity="0.5" clip-path="url(#clip0_76_5877)">
<path d="M9.07017 0.666748C8.37656 0.699681 7.51929 1.13821 7.03004 1.75528C6.58149 2.28655 6.19788 3.15061 6.29487 3.96095C7.07853 4.02855 7.8622 3.55448 8.35232 2.95475C8.83377 2.33768 9.15244 1.51088 9.07104 0.666748H9.07017ZM15.7335 2.31601V14.6981H17.7078V10.571H20.4095C22.8887 10.571 24.6699 8.85761 24.6699 6.44308C24.6699 4.02855 22.9216 2.31601 20.4745 2.31601H15.7326H15.7335ZM8.86235 3.96701C8.19732 3.96701 7.64485 4.14381 7.24046 4.29288C6.83694 4.44195 6.5304 4.51561 6.62219 4.51561C6.70445 4.51561 6.42129 4.44801 6.05934 4.30241C5.69564 4.15681 5.20986 3.97048 4.61323 3.97048C3.26238 3.97048 2.04748 4.76781 1.38764 5.92741C0.724342 7.06881 0.666325 8.39741 0.881076 9.61508C1.09669 10.8319 1.58421 11.962 2.17477 12.8165C2.43888 13.2013 2.74369 13.6286 3.15328 13.9969C3.56199 14.3653 4.12312 14.692 4.79681 14.692H4.82798C5.3588 14.6721 5.75886 14.4961 6.01171 14.393C6.26456 14.2907 6.39099 14.237 6.71484 14.237C7.03264 14.237 7.1634 14.2942 7.44049 14.406C7.71759 14.5187 8.15402 14.6981 8.72207 14.6981C9.38884 14.6981 9.94996 14.3635 10.3327 13.9935C10.7137 13.6243 10.9821 13.2109 11.2315 12.8477L11.2333 12.846C11.8974 11.8805 12.1702 10.8899 12.1702 10.8899L12.3763 10.1619L11.6619 9.89501C11.6619 9.89501 10.6055 9.58821 10.5951 8.25442V8.25268C10.5866 7.82465 10.7382 7.40888 11.0202 7.08701C11.1457 6.93692 11.2904 6.80404 11.4506 6.69181C11.4783 6.67275 11.4168 6.72388 11.5511 6.62248L12.1728 6.15015L11.7364 5.50535C10.8185 4.15248 9.42001 3.96701 8.86235 3.96701ZM17.7078 3.96701H19.9939C21.6954 3.96701 22.6956 4.87961 22.6956 6.44308C22.6956 8.00741 21.7032 8.92001 19.9939 8.92001H17.7078V3.96701ZM7.3591 5.76448C7.46907 5.76448 3.01213 7.09308 3.42345 7.34181C3.40526 7.36348 7.37728 7.27161 7.35823 7.29415C6.95384 7.77948 1.77385 6.82181 1.78337 7.80375C1.7955 9.29441 9.70317 10.4895 10.3336 10.9324C10.2314 11.2106 10.1838 11.4446 9.8599 11.9152L9.85817 11.9169C9.60272 12.2896 9.37065 12.6198 9.17235 12.8122C8.97492 13.0029 8.06396 12.3919 7.91069 12.3919C7.65611 12.3919 8.35925 12.9959 8.06656 12.8772C7.77474 12.7593 7.22055 6.16575 6.62219 6.16575C6.03682 6.16575 3.11777 11.169 2.82769 11.2869C2.54712 11.4004 4.99424 13.0254 4.78555 13.0358C4.64181 13.0332 7.94793 11.4871 7.72538 11.2869C7.49851 11.0823 3.78973 12.2402 3.54901 11.8883V11.8866L9.73781 13.2473C9.29965 12.6146 11.19 12.248 11.0202 11.2869C10.8505 10.3249 2.42936 7.43368 2.82855 6.74988L2.83115 6.74468L1.78337 8.25442C2.16092 7.58795 5.96495 13.1381 6.62219 13.1381C6.84733 13.1381 8.54455 7.67635 8.86235 7.80288C9.18015 7.93028 6.0654 6.16488 6.62219 6.16488C7.18245 6.16488 10.5674 6.39888 10.9068 6.27408C11.2463 6.14841 6.98934 5.76361 7.35823 5.76361L7.3591 5.76448ZM29.1996 5.61801C27.13 5.61801 25.6016 6.77068 25.5454 8.35408H27.298C27.4426 7.60095 28.1596 7.10781 29.1424 7.10781C30.3339 7.10781 31.0068 7.64948 31.0068 8.64615L31.0076 9.33255L28.5709 9.45995C26.3091 9.59255 25.0855 10.4956 25.0855 12.0634C25.0855 13.6477 26.3489 14.6998 28.1596 14.6998C29.384 14.6998 30.5193 14.0957 31.0345 13.1398H31.0743V14.6045H32.8763V8.52048C32.8772 6.75421 31.4302 5.61801 29.1996 5.61801ZM33.6054 5.61801L36.9375 14.6565L36.7591 15.2059C36.4578 16.1385 35.9711 16.4955 35.1009 16.4955C34.9519 16.4955 34.6705 16.4808 34.5406 16.4652V17.955C34.6722 17.9836 35.1295 18.0001 35.2715 18.0001C37.1895 18.0001 38.0918 17.2833 38.8807 15.1097L42.334 5.61801H40.3354L38.0182 12.9517H37.9775L35.6611 5.61801H33.6054ZM31.0076 10.571L31.0016 11.2869C31.0016 12.4309 30.0032 13.2473 28.6835 13.2473C27.6444 13.2473 26.9845 12.7619 26.9845 12.0166C26.9845 11.2487 27.621 10.8015 28.8376 10.7305L31.0076 10.571Z" fill="#0B1424"/>
</g>
<defs>
<clipPath id="clip0_76_5877">
<rect width="41.5646" height="17.3333" fill="white" transform="translate(0.769531 0.666748)"/>
</clipPath>
</defs>
</svg>
