<svg width="52" height="20" viewBox="0 0 52 20" fill="none" xmlns="http://www.w3.org/2000/svg">
<g opacity="0.5" clip-path="url(#clip0_76_5879)">
<path d="M24.9576 9.7775V15.6361H23.0698V1.16771H28.0765C28.6737 1.15548 29.2675 1.25997 29.8249 1.47533C30.3797 1.6893 30.8872 2.01053 31.3185 2.42077C31.7517 2.80486 32.0982 3.27584 32.3313 3.80244C32.5646 4.32799 32.6811 4.89821 32.6726 5.47347C32.6848 6.0519 32.5701 6.62595 32.3365 7.15494C32.1025 7.68501 31.756 8.15947 31.3185 8.5453C30.4435 9.36648 29.3622 9.7775 28.0765 9.77663H24.9576V9.7775ZM24.9576 2.94911V7.99958H28.1233C28.4699 8.01001 28.8164 7.94831 29.137 7.8197C29.4593 7.69109 29.7495 7.49818 29.9912 7.25139C30.2312 7.02199 30.4218 6.74739 30.5526 6.44325C30.7495 5.98577 30.8013 5.47858 30.7008 4.99058C30.6004 4.50258 30.3526 4.05741 29.9912 3.71554C29.7518 3.46394 29.4622 3.26584 29.1413 3.1342C28.8186 3.00177 28.4719 2.93843 28.1233 2.94824H24.9576V2.94911ZM37.0218 5.41438C38.4175 5.41438 39.5186 5.78109 40.3261 6.51537C41.1336 7.24966 41.5373 8.2568 41.5364 9.53506V15.6361H39.7309V14.2631H39.6486C38.8671 15.3945 37.8275 15.9602 36.5297 15.9602C35.4225 15.9602 34.4954 15.637 33.7495 14.9905C33.393 14.6951 33.107 14.3233 32.9126 13.9025C32.7191 13.4841 32.6228 13.0272 32.631 12.566C32.631 11.5415 33.0244 10.7264 33.811 10.1216C34.5968 9.51681 35.6477 9.21354 36.9603 9.21267C38.0813 9.21267 39.0049 9.41427 39.7292 9.81834V9.39341C39.7314 9.0791 39.6627 8.76836 39.5282 8.48447C39.3924 8.19889 39.1947 7.94741 38.9494 7.74845C38.4469 7.30372 37.7976 7.06215 37.1275 7.07065C36.0731 7.07065 35.2388 7.50861 34.6245 8.38454L32.962 7.35393C33.8769 6.0609 35.2301 5.41438 37.0226 5.41438H37.0218ZM34.5804 12.606C34.5786 12.8432 34.6349 13.0761 34.7441 13.2873C34.8533 13.4976 35.0109 13.6801 35.2059 13.8182C35.6256 14.1424 36.143 14.3134 36.6726 14.3031C37.4697 14.3022 38.233 13.9903 38.7961 13.435C39.4216 12.8554 39.7344 12.175 39.7344 11.3955C39.1452 10.9332 38.3248 10.703 37.2722 10.703C36.5054 10.703 35.866 10.8854 35.354 11.2487C34.8368 11.618 34.5804 12.0672 34.5804 12.606ZM51.9008 5.73677L45.5988 20.0001H43.6495L45.9887 15.0096L41.844 5.73764H43.8964L46.8914 12.8485H46.933L49.8466 5.73677H51.9016H51.9008ZM17.3293 8.51488C17.3301 7.94831 17.2816 7.38261 17.1846 6.82473H9.22266V10.026H13.7832C13.6895 10.5385 13.4919 11.0262 13.2027 11.459C12.9125 11.8934 12.5365 12.2645 12.0973 12.5521V14.629H14.8177C16.4118 13.183 17.3301 11.0445 17.3301 8.51488H17.3293Z" fill="#0B1424"/>
<path d="M9.22228 16.6371C11.5008 16.6371 13.4181 15.9011 14.8173 14.6316L12.0951 12.553C11.3379 13.0587 10.3624 13.3472 9.22141 13.3472C7.01911 13.3472 5.15035 11.8856 4.48238 9.9165H1.67969V12.0577C2.38755 13.4401 3.4651 14.5976 4.79168 15.4006C6.12843 16.2104 7.6606 16.6381 9.22228 16.6371Z" fill="#0B1424"/>
<path d="M4.4841 9.91659C4.13062 8.88549 4.13062 7.76551 4.4841 6.73441V4.59326H1.68054C1.09006 5.74826 0.781819 7.02751 0.78125 8.3255C0.78125 9.62201 1.08968 10.8994 1.68054 12.0577L4.4841 9.91659Z" fill="#0B1424"/>
<path d="M9.22228 3.30364C10.4221 3.28274 11.5831 3.7298 12.4608 4.55062L14.8693 2.17832C13.3308 0.761931 11.3113 -0.0119966 9.22314 0.0145784C7.66125 0.0132362 6.12877 0.440558 4.79168 1.25026C3.4651 2.05325 2.38755 3.21077 1.67969 4.5932L4.48325 6.73522C5.15122 4.76526 7.01997 3.30364 9.22228 3.30364Z" fill="#0B1424"/>
</g>
<defs>
<clipPath id="clip0_76_5879">
<rect width="51.1156" height="19.9864" fill="white" transform="translate(0.78125 0.0136719)"/>
</clipPath>
</defs>
</svg>
