<svg width="57" height="14" viewBox="0 0 57 14" fill="none" xmlns="http://www.w3.org/2000/svg">
<g opacity="0.5" clip-path="url(#clip0_76_5859)">
<path d="M12.135 13.1464L9.0622 7.34353C9.73926 7.11934 10.2601 6.89516 10.7809 6.602C11.3017 6.30021 11.7531 5.92944 12.135 5.5673C12.5083 5.18791 12.8034 4.73955 13.0291 4.29118C13.2548 3.85143 13.3329 3.40307 13.3329 2.9547C13.3329 2.58393 13.2548 2.21317 13.1767 1.83378C13.0311 1.52236 12.8568 1.22505 12.6558 0.945669C12.4301 0.721486 12.135 0.505925 11.7531 0.428323C11.3798 0.281741 11.0066 0.281741 10.5552 0.281741C10.2601 0.281741 9.95627 0.350721 9.73926 0.428323C9.51358 0.505925 9.28789 0.652506 9.13165 0.721486C8.98408 0.945669 8.83652 1.10087 8.75839 1.16985C8.68895 1.31643 8.61083 1.39404 8.61083 1.47164V1.61822C8.68895 1.69582 8.75839 1.8424 8.91464 2.06659C8.98408 2.29077 9.14033 2.50633 9.20977 2.80812C9.28789 3.10128 9.28789 3.40307 9.28789 3.69623C9.28789 3.99802 9.20977 4.2998 9.0622 4.59297C8.91464 4.89475 8.61083 5.11031 8.3157 5.3345L6.36264 0.87669V0.799088L6.2932 0.721486H1.71869V0.80771L4.56582 6.46404C3.89744 6.68822 3.36795 6.90378 2.76901 7.20557C2.24819 7.49873 1.79682 7.87812 1.34544 8.24026C0.97219 8.61965 0.598939 9.06802 0.373252 9.50776C0.146657 9.91867 0.0189046 10.3761 0 10.8442C0 11.215 0 11.5858 0.147565 11.9652C0.30381 12.2583 0.451374 12.5515 0.668381 12.8533C0.902748 13.0688 1.19788 13.293 1.50169 13.4482C1.79682 13.5172 2.17007 13.5948 2.54332 13.5948C2.84713 13.5948 3.15094 13.5172 3.44607 13.4482C3.7412 13.3706 3.96688 13.224 4.11445 13.0688C4.34014 12.9223 4.49638 12.7757 4.63527 12.6291C4.79151 12.4739 4.86963 12.3273 4.93907 12.1807C5.0172 12.0341 5.0172 11.9565 5.0172 11.9565C4.93907 11.8789 4.86963 11.7324 4.79151 11.5858C4.59671 11.4079 4.46565 11.1718 4.41826 10.9132C4.34014 10.689 4.34014 10.3959 4.34014 10.0941C4.34014 9.80092 4.41826 9.49914 4.56582 9.27495C4.72207 8.98179 4.93907 8.75761 5.32101 8.53342L7.18726 13.1464V13.224L7.26539 13.293H11.9788C12.135 13.224 12.135 13.224 12.135 13.1464ZM23.3673 9.57674C23.3673 9.43016 23.4367 9.20598 23.4367 8.90419C23.5149 8.61103 23.5149 8.30924 23.593 8.01608C23.6624 7.71429 23.6624 7.34353 23.7405 7.05036C23.81 6.6796 23.81 6.37781 23.8881 6.08465C23.9662 5.70526 23.9662 5.48108 24.0357 5.18791C24.1138 4.96373 24.1138 4.73955 24.1138 4.59297V4.29118H20.5202L20.442 4.3774C20.442 4.3774 20.442 4.51536 20.3726 4.67057C20.3726 4.89475 20.2858 5.18791 20.2858 5.55868C20.1402 5.24726 19.9659 4.94995 19.765 4.67057C19.5408 4.41246 19.2622 4.20641 18.949 4.067C18.6198 3.91722 18.2607 3.84352 17.8987 3.85143C17.4713 3.83637 17.0453 3.90813 16.6468 4.06232C16.2483 4.21651 15.8856 4.44989 15.5811 4.74817C14.9193 5.35363 14.4285 6.12056 14.1575 6.97276C14.013 7.43391 13.9113 7.90725 13.8537 8.38684C13.7789 8.85527 13.7789 9.3325 13.8537 9.80092C13.9318 10.2493 14.0013 10.689 14.1575 11.1374C14.3051 11.5858 14.4527 11.9565 14.7565 12.2583C14.9735 12.5515 15.2773 12.8533 15.6505 12.9999C16.0238 13.224 16.397 13.293 16.8484 13.293C17.2217 13.293 17.673 13.224 18.0463 13.0688C18.4195 12.9223 18.7233 12.6981 19.0879 12.4049C19.3917 12.1031 19.6955 11.7324 19.9212 11.3702C19.9212 11.8013 20.0688 12.1031 20.2164 12.4049C20.3726 12.6981 20.6677 12.9223 20.9715 13.0688C21.2667 13.224 21.6399 13.293 22.0132 13.293C22.2389 13.293 22.534 13.224 22.7684 13.1464C22.9854 13.0688 23.211 12.9999 23.4367 12.8533C23.6624 12.6981 23.81 12.6291 23.9576 12.4739C24.1138 12.3273 24.1919 12.1807 24.2614 12.0341C24.2614 11.9565 24.3395 11.8789 24.2614 11.8789L24.1138 11.7324C24.0357 11.6634 23.9662 11.6634 23.8881 11.5858C23.7965 11.4728 23.7206 11.3481 23.6624 11.215C23.593 11.0684 23.593 10.8442 23.5149 10.5425C23.2892 10.3959 23.3673 10.0251 23.3673 9.57674ZM18.489 11.0684C18.2633 11.0684 18.1157 10.9822 17.9682 10.9132C17.8119 10.7666 17.6644 10.6201 17.5862 10.3959C17.5168 10.1717 17.4387 9.94751 17.4387 9.65434V8.75761C17.5168 8.46444 17.5168 8.08506 17.6644 7.8695C17.7425 7.56771 17.89 7.35215 18.0376 7.11934C18.1852 6.89516 18.3414 6.74858 18.489 6.602C18.6365 6.45541 18.8622 6.45541 19.0879 6.45541C19.3136 6.45541 19.4612 6.52439 19.6087 6.602C19.765 6.74858 19.9125 6.89516 19.982 7.11934C20.0601 7.34353 20.1382 7.56771 20.1382 7.8695V8.75761C20.0601 9.05939 20.0601 9.43016 19.9125 9.65434C19.8344 9.94751 19.6869 10.1717 19.5393 10.3959C19.383 10.6201 19.2355 10.7666 19.0879 10.9132C18.8622 10.9908 18.6365 11.0684 18.4803 11.0684H18.489ZM35.4155 4.51536C35.3374 4.44638 35.3374 4.44638 35.4155 4.51536C34.116 4.19333 32.7789 4.04544 31.4399 4.07562C30.1726 4.07562 28.9747 4.2222 27.7769 4.44638H27.6987V4.73955C27.6987 4.89475 27.6206 5.04133 27.6206 5.34312C27.6206 5.55868 27.5512 5.86047 27.4731 6.15363C27.3949 6.45541 27.3949 6.7572 27.3255 7.05036L27.0998 7.93848C27.0217 8.24026 26.9522 8.45582 26.8741 8.68001C26.6484 9.19735 26.5009 9.57674 26.2752 9.94751C26.0495 10.2493 25.9019 10.5511 25.6762 10.7666C25.5287 10.9908 25.303 11.1374 25.2249 11.215L24.9297 11.5082C24.8516 11.5858 24.7822 11.6634 24.7822 11.7324V12.1031C24.7822 12.2583 24.8516 12.4049 24.9297 12.6205C24.9992 12.7757 25.1554 12.9999 25.303 13.1464C25.4506 13.293 25.6762 13.4482 25.9019 13.5172C26.244 13.6343 26.6063 13.6817 26.9673 13.6565C27.3282 13.6313 27.6803 13.5341 28.0026 13.3706C28.3758 13.1464 28.6709 12.8533 28.9747 12.4049C29.2699 11.9565 29.4956 11.3702 29.6431 10.689C29.7994 10.0251 29.9469 9.28358 30.0945 8.53342L30.3202 6.15363H31.7438C31.6656 6.52439 31.6656 6.89516 31.5962 7.34353C31.5181 7.79189 31.5181 8.24026 31.4399 8.68001C31.3705 9.12837 31.3705 9.57674 31.2924 10.0251C31.2143 10.4735 31.2143 10.8442 31.1448 11.284C31.0667 11.6634 31.0667 12.0341 30.9972 12.3273C30.9191 12.6291 30.9191 12.8446 30.9191 12.9999V13.293H34.2871V12.9222C34.2871 12.7757 34.3652 12.4739 34.3652 12.1807C34.4346 11.8789 34.4346 11.5082 34.5128 11.0598C34.5909 10.6201 34.5909 10.2493 34.6603 9.72332C34.7384 9.28358 34.8166 8.83521 34.8166 8.30924C34.886 7.8695 34.9641 7.42113 34.9641 6.97276C35.1898 6.52439 35.1898 6.15363 35.2593 5.78286C35.3374 5.4121 35.3374 5.18791 35.3374 4.96373C35.4155 4.73955 35.4155 4.59297 35.4155 4.51536ZM39.9813 6.45541L40.1289 6.15363C40.9996 6.06887 41.8549 5.86877 42.6722 5.55868C43.2735 5.33276 43.8313 5.00612 44.3215 4.59297C44.6947 4.2222 44.9985 3.85143 45.1461 3.40307C45.2937 3.0323 45.3718 2.58393 45.2937 2.21317C45.2237 1.84037 45.0726 1.48724 44.851 1.17848C44.6253 0.87669 44.2433 0.652506 43.8701 0.428323C43.4426 0.270835 42.9891 0.19478 42.5333 0.204139C41.8649 0.204139 41.1879 0.350721 40.6584 0.652506C40.0595 0.945669 39.5386 1.24746 39.0959 1.77342C38.1192 2.73175 37.3768 3.89987 36.9259 5.18791C36.6915 5.86047 36.4658 6.52439 36.3964 7.19694C36.2401 7.8695 36.2401 8.53342 36.2401 9.20597C36.2401 9.80092 36.3269 10.3959 36.5439 10.9132C36.6915 11.4306 36.9953 11.8789 37.2904 12.3273C37.6637 12.6981 38.0456 13.0688 38.5664 13.293C39.0873 13.5172 39.6949 13.6724 40.2851 13.6724C40.806 13.6724 41.3355 13.5862 41.8649 13.4482C42.3858 13.293 42.8371 13.0688 43.2104 12.7757C43.5836 12.4739 43.9569 12.1721 44.252 11.81C44.5558 11.4392 44.7815 10.9908 44.9291 10.4735C45.0766 9.95613 45.1548 9.43016 45.0766 8.90419C45.0422 8.46327 44.915 8.03442 44.7034 7.64531C44.4777 7.27455 44.1826 7.04174 43.8093 6.82618C43.4432 6.60066 43.0363 6.44835 42.6115 6.37781C42.1601 6.30021 41.7087 6.30021 41.3355 6.30021C40.881 6.23714 40.4178 6.29057 39.99 6.45541H39.9813ZM41.9257 2.50633C42.0733 2.50633 42.1514 2.50633 42.2295 2.59256L42.3771 2.73052V2.9547C42.3771 3.17888 42.2295 3.40307 42.1514 3.55827C42.0038 3.69623 41.8563 3.92041 41.7 4.07562C41.5525 4.2222 41.3268 4.36878 41.1792 4.44638C41.0316 4.51536 40.8754 4.67057 40.7278 4.67057L40.5803 4.73955C40.5803 4.59297 40.6497 4.44638 40.7278 4.29118L40.9535 3.69623C41.0316 3.48067 41.1011 3.32547 41.2486 3.10128C41.3355 2.9547 41.4743 2.73052 41.6306 2.66154C41.6306 2.58393 41.7781 2.50633 41.9257 2.50633ZM41.8563 9.65434C41.8563 9.72332 41.8563 9.87853 41.7695 10.0251C41.7 10.1717 41.7 10.3183 41.6306 10.5425C41.5525 10.689 41.4743 10.9132 41.3268 11.0598C41.2486 11.215 41.1011 11.3616 40.9535 11.4392C40.806 11.5082 40.6497 11.5858 40.4327 11.5858C40.3347 11.5881 40.2374 11.5692 40.1475 11.5305C40.0576 11.4918 39.9772 11.4342 39.9119 11.3616C39.7682 11.2175 39.6636 11.0395 39.6081 10.8442C39.53 10.6201 39.53 10.3959 39.4518 10.0941V9.27495C39.4518 8.98179 39.5386 8.75761 39.5386 8.53342C39.5386 8.30924 39.6081 8.16266 39.6081 8.01608C39.6081 8.01608 39.6775 8.01608 39.7556 7.93848C39.8338 7.93848 39.9813 7.8695 40.1289 7.8695H40.5803C40.8754 7.93848 41.1011 8.01608 41.2486 8.16266C41.4049 8.30924 41.5525 8.53342 41.6306 8.76623C41.8563 9.05939 41.8563 9.28358 41.8563 9.65434ZM55.4843 9.57674C55.4843 9.43016 55.5537 9.20598 55.5537 8.90419C55.6319 8.61103 55.6319 8.30924 55.71 8.01608C55.7794 7.71429 55.7794 7.34353 55.8575 7.05036C55.927 6.6796 55.927 6.37781 56.0051 6.08465C56.0832 5.78286 56.0832 5.48108 56.1527 5.26552C56.2308 5.04133 56.2308 4.81715 56.2308 4.66194V4.3774H52.6372L52.559 4.45501C52.559 4.45501 52.559 4.60159 52.4896 4.74817C52.4896 4.97235 52.4028 5.26552 52.4028 5.6449C52.2577 5.33051 52.0834 5.03029 51.882 4.74817C51.6569 4.49318 51.3784 4.29013 51.066 4.15322C50.7375 4.00048 50.3784 3.92382 50.0157 3.92904C49.5883 3.91397 49.1623 3.98573 48.7638 4.13992C48.3653 4.29412 48.0026 4.5275 47.6981 4.82577C47.3943 5.11893 47.0905 5.42072 46.8735 5.79149C46.6478 6.16225 46.4221 6.61062 46.2658 7.05899C46.1242 7.5204 46.0254 7.99374 45.9707 8.47307C45.8957 8.94148 45.8957 9.41873 45.9707 9.88715C46.0488 10.3269 46.1183 10.7753 46.2745 11.2236C46.4221 11.672 46.5697 12.0428 46.8735 12.3445C47.0905 12.6377 47.3943 12.9309 47.7675 13.0775C48.1408 13.3016 48.514 13.3792 48.9654 13.3792C49.3387 13.3792 49.79 13.3016 50.1633 13.1551C50.5365 13.0085 50.8404 12.7843 51.2049 12.4825C51.5087 12.1893 51.8125 11.8186 52.0382 11.4478C52.0382 11.8876 52.1858 12.1893 52.3334 12.4825C52.4896 12.7843 52.7847 12.9999 53.0885 13.1551C53.3837 13.3016 53.7569 13.3792 54.1302 13.3792C54.3559 13.3792 54.651 13.3016 54.8854 13.2327C55.111 13.1551 55.328 13.0775 55.5537 12.9309C55.7794 12.7843 55.927 12.7067 56.0746 12.5601C56.2308 12.4135 56.3089 12.2669 56.3784 12.1117C56.3784 12.0428 56.4565 11.9652 56.3784 11.9652L56.2308 11.8186C56.1527 11.741 56.0832 11.741 56.0051 11.672C55.927 11.5858 55.8575 11.4478 55.7794 11.2926C55.71 11.146 55.71 10.9218 55.6319 10.6287C55.4062 10.4045 55.4843 10.0251 55.4843 9.58536V9.57674ZM50.6147 11.0684C50.389 11.0684 50.2414 10.9822 50.0938 10.9132C49.9261 10.7741 49.7951 10.5966 49.7119 10.3959C49.6425 10.1717 49.5644 9.94751 49.5644 9.65434V8.75761C49.6425 8.46444 49.6425 8.08506 49.79 7.8695C49.8682 7.56771 50.0157 7.35215 50.1633 7.11934C50.3109 6.89516 50.4671 6.74858 50.6147 6.602C50.7622 6.45541 50.9879 6.45541 51.2136 6.45541C51.4393 6.45541 51.5869 6.52439 51.7344 6.602C51.8907 6.74858 52.0382 6.89516 52.1077 7.11934C52.1858 7.34353 52.2639 7.56771 52.2639 7.8695V8.75761C52.1858 9.05939 52.1858 9.43016 52.0382 9.65434C51.9601 9.94751 51.8125 10.1717 51.665 10.3959C51.5087 10.6201 51.3612 10.7666 51.2136 10.9132C50.9879 10.9908 50.7622 11.0684 50.606 11.0684H50.6147Z" fill="#0B1424"/>
</g>
<defs>
<clipPath id="clip0_76_5859">
<rect width="56.4218" height="13.7959" fill="white" transform="translate(0 0.204102)"/>
</clipPath>
</defs>
</svg>
