<svg width="35" height="26" viewBox="0 0 35 26" fill="none" xmlns="http://www.w3.org/2000/svg">
<g opacity="0.5" clip-path="url(#clip0_76_5863)">
<path fill-rule="evenodd" clip-rule="evenodd" d="M33.7287 25.6472V25.7148H33.792C33.8058 25.7148 33.818 25.7122 33.8258 25.7061C33.8344 25.7009 33.8388 25.6923 33.8388 25.681C33.839 25.676 33.838 25.6711 33.8357 25.6666C33.8334 25.6622 33.83 25.6585 33.8258 25.6559C33.8155 25.6492 33.8033 25.6462 33.7911 25.6472H33.7296H33.7287ZM33.792 25.5995C33.819 25.5977 33.8457 25.6057 33.8673 25.6221C33.8847 25.6359 33.8933 25.6559 33.8933 25.681C33.8937 25.6906 33.892 25.7002 33.8884 25.7092C33.8848 25.7181 33.8794 25.7262 33.8725 25.733C33.8561 25.7473 33.8354 25.7558 33.8136 25.7573L33.8959 25.8526H33.831L33.753 25.7581H33.7296V25.8526H33.6759V25.5995H33.792ZM33.7764 25.9401C33.8047 25.9402 33.8328 25.9343 33.8587 25.9228C33.8971 25.9068 33.9298 25.8797 33.9527 25.845C33.9755 25.8102 33.9874 25.7694 33.9869 25.7278C33.9874 25.6998 33.9822 25.672 33.9716 25.6461C33.9611 25.6201 33.9453 25.5966 33.9254 25.577C33.9061 25.5571 33.8829 25.5414 33.8573 25.5309C33.8316 25.5205 33.8041 25.5155 33.7764 25.5163C33.7484 25.5158 33.7205 25.5209 33.6945 25.5314C33.6684 25.5418 33.6448 25.5573 33.6248 25.577C33.605 25.5967 33.5894 25.6202 33.579 25.6462C33.5686 25.6721 33.5635 25.6999 33.5642 25.7278C33.5642 25.7573 33.5685 25.7841 33.5798 25.8101C33.591 25.8361 33.6057 25.8587 33.6248 25.8786C33.6657 25.9176 33.7199 25.9396 33.7764 25.9401ZM33.7764 25.4548C33.8493 25.4543 33.9194 25.4828 33.9714 25.534C34.0233 25.5851 34.0529 25.6548 34.0536 25.7278C34.0534 25.7816 34.0373 25.8341 34.0072 25.8787C33.9771 25.9233 33.9345 25.958 33.8847 25.9783C33.8427 25.9957 33.7972 26.0026 33.7519 25.9986C33.7067 25.9945 33.6631 25.9795 33.625 25.9549C33.5868 25.9302 33.5552 25.8967 33.5328 25.8571C33.5105 25.8176 33.498 25.7732 33.4966 25.7278C33.4974 25.6552 33.5266 25.5858 33.578 25.5345C33.6037 25.5095 33.634 25.4898 33.6672 25.4765C33.7017 25.4617 33.7389 25.4544 33.7764 25.4548ZM8.20317 24.4807C8.20317 23.9997 8.51934 23.6036 9.03473 23.6036C9.52848 23.6036 9.8611 23.9815 9.8611 24.4807C9.8611 24.9799 9.52848 25.3586 9.03473 25.3586C8.51934 25.3586 8.20317 24.9634 8.20317 24.4807ZM10.4233 24.4807V23.1096H9.82559V23.4424C9.63762 23.1963 9.34917 23.0411 8.95937 23.0411C8.19278 23.0411 7.58989 23.6426 7.58989 24.4807C7.58989 25.3187 8.19278 25.9211 8.96024 25.9211C9.35004 25.9211 9.63762 25.7668 9.82645 25.5198V25.8517H10.4233V24.4807ZM30.5627 24.4807C30.5627 23.9997 30.878 23.6036 31.3943 23.6036C31.888 23.6036 32.2207 23.9815 32.2207 24.4807C32.2207 24.9799 31.888 25.3586 31.3952 25.3586C30.878 25.3586 30.5636 24.9634 30.5636 24.4807H30.5627ZM32.782 24.4807V22.0081H32.186V23.4424C31.9955 23.1963 31.7096 23.0411 31.3198 23.0411C30.5515 23.0411 29.9495 23.6426 29.9495 24.4807C29.9495 25.3187 30.5515 25.9211 31.3198 25.9211C31.7096 25.9211 31.9955 25.7668 32.186 25.5198V25.8517H32.782V24.4807ZM17.8207 23.5741C18.2045 23.5741 18.4513 23.8159 18.5137 24.2397H17.0922C17.1555 23.8445 17.3954 23.5741 17.8199 23.5741H17.8207ZM17.832 23.0411C17.0299 23.0411 16.4668 23.6261 16.4668 24.4807C16.4668 25.3534 17.0524 25.9211 17.8718 25.9211C18.285 25.9211 18.6636 25.8179 18.9962 25.5371L18.7034 25.0951C18.4769 25.2765 18.1966 25.3774 17.9065 25.382C17.5228 25.382 17.1728 25.2035 17.0862 24.7103H19.1218C19.129 24.634 19.133 24.5573 19.1339 24.4807C19.1287 23.6261 18.6003 23.0411 17.832 23.0411ZM25.0294 24.4807C25.0294 23.9997 25.3438 23.6036 25.8609 23.6036C26.3538 23.6036 26.6864 23.9815 26.6864 24.4807C26.6864 24.9799 26.3538 25.3586 25.8609 25.3586C25.3438 25.3586 25.0294 24.9634 25.0294 24.4807ZM27.2486 24.4807V23.1096H26.6509V23.4424C26.4621 23.1963 26.1745 23.0411 25.7847 23.0411C25.0172 23.0411 24.4152 23.6426 24.4152 24.4807C24.4152 25.3187 25.0172 25.9211 25.7856 25.9211C26.1754 25.9211 26.4612 25.7668 26.6518 25.5198V25.8517H27.2486V24.4807ZM21.6615 24.4807C21.6615 25.3127 22.2419 25.9211 23.1254 25.9211C23.5377 25.9211 23.8132 25.8292 24.1112 25.5935L23.8245 25.1125C23.6184 25.2696 23.3672 25.3559 23.1081 25.3586C22.6317 25.3534 22.2817 25.0093 22.2817 24.4807C22.2817 23.9537 22.6317 23.6088 23.1081 23.6036C23.3662 23.6036 23.6018 23.6894 23.8245 23.8506L24.1103 23.3679C23.8132 23.133 23.5377 23.0411 23.1254 23.0411C22.2419 23.0411 21.6615 23.6487 21.6615 24.4807ZM29.3466 23.0411C29.0035 23.0411 28.7792 23.2015 28.6241 23.4424V23.1096H28.0343V25.8517H28.6302V24.3151C28.6302 23.861 28.8251 23.6088 29.2149 23.6088C29.3362 23.6088 29.4618 23.6261 29.5874 23.6781L29.7719 23.1157C29.6353 23.0671 29.4915 23.0419 29.3466 23.0411ZM13.3701 23.328C13.0834 23.1382 12.6884 23.0411 12.2527 23.0411C11.558 23.0411 11.111 23.3739 11.111 23.9191C11.111 24.3663 11.4437 24.6419 12.057 24.7277L12.3385 24.7675C12.6659 24.8135 12.8201 24.9001 12.8201 25.0544C12.8201 25.2676 12.6018 25.3872 12.1955 25.3872C11.7824 25.3872 11.4835 25.2555 11.2834 25.1003L11.0028 25.5649C11.3293 25.8067 11.7417 25.9211 12.1895 25.9211C12.9803 25.9211 13.4394 25.5484 13.4394 25.0258C13.4394 24.5448 13.0782 24.2917 12.4823 24.2059L12.2007 24.1652C11.9426 24.1314 11.7356 24.0794 11.7356 23.8957C11.7356 23.6946 11.9314 23.5741 12.2579 23.5741C12.6079 23.5741 12.9466 23.7067 13.112 23.8099L13.3701 23.328ZM21.0604 23.0411C20.7174 23.0411 20.493 23.2015 20.338 23.4424V23.1096H19.7472V25.8517H20.344V24.3151C20.344 23.861 20.538 23.6088 20.9296 23.6088C21.0491 23.6088 21.1756 23.6261 21.3012 23.6781L21.4848 23.1157C21.3485 23.067 21.205 23.0418 21.0604 23.0411ZM15.974 23.1096H14.9995V22.2776H14.3975V23.1096H13.8405V23.6547H14.3975V24.9062C14.3975 25.5423 14.6435 25.9211 15.3486 25.9211C15.6067 25.9211 15.9055 25.8413 16.0952 25.7087L15.922 25.1983C15.7444 25.3023 15.5495 25.3534 15.3953 25.3534C15.0965 25.3534 14.9995 25.1697 14.9995 24.8941V23.6547H15.974V23.1096ZM7.06237 25.8517V24.1314C7.06237 23.4831 6.64918 23.0463 5.9848 23.0411C5.63398 23.0351 5.27277 23.1443 5.0207 23.5291C4.83187 23.2249 4.53389 23.0411 4.11551 23.0411C3.82273 23.0411 3.53515 23.1269 3.31253 23.4485V23.1096H2.71484V25.8517H3.31773V24.3316C3.31773 23.8558 3.58106 23.6036 3.98904 23.6036C4.38404 23.6036 4.585 23.861 4.585 24.3264V25.8517H5.18788V24.3316C5.18788 23.8558 5.46247 23.6036 5.85833 23.6036C6.26545 23.6036 6.46035 23.861 6.46035 24.3264V25.8517H7.06237Z" fill="#0B1424"/>
<mask id="mask0_76_5863" style="mask-type:alpha" maskUnits="userSpaceOnUse" x="0" y="0" width="35" height="26">
<path fill-rule="evenodd" clip-rule="evenodd" d="M0.984375 26H34.3908V0H0.984375V26Z" fill="white"/>
</mask>
<g mask="url(#mask0_76_5863)">
<path fill-rule="evenodd" clip-rule="evenodd" d="M13.1719 18.4496H22.2056V2.20825H13.1719V18.4496Z" fill="#8D8D8D"/>
<path fill-rule="evenodd" clip-rule="evenodd" d="M13.7437 10.3289C13.7437 7.03388 15.2856 4.10021 17.6876 2.20828C15.87 0.774796 13.6222 -0.00324862 11.3079 1.01955e-05C5.60649 1.01955e-05 0.984375 4.62454 0.984375 10.3289C0.984375 16.0333 5.60562 20.6587 11.3079 20.6587C13.716 20.6587 15.9317 19.8337 17.6884 18.4496C16.4583 17.4841 15.4639 16.2512 14.7806 14.8443C14.0973 13.4373 13.743 11.8932 13.7446 10.3289H13.7437Z" fill="#515151"/>
<path fill-rule="evenodd" clip-rule="evenodd" d="M34.0689 16.7301V16.3289H33.965L33.8437 16.6045L33.7241 16.3289H33.6185V16.7301H33.6921V16.4268L33.8056 16.6885H33.8818L33.9953 16.4268V16.7301H34.0689ZM33.4062 16.7301V16.3973H33.5405V16.3297H33.1992V16.3973H33.3326V16.7301H33.4062Z" fill="#0B1424"/>
<path fill-rule="evenodd" clip-rule="evenodd" d="M34.3898 10.3289C34.3898 16.0333 29.7677 20.6587 24.0672 20.6587C21.6591 20.6587 19.4424 19.8337 17.6875 18.4496C18.9172 17.4838 19.9112 16.2508 20.5943 14.8439C21.2774 13.437 21.6318 11.8931 21.6305 10.3289C21.6305 7.03388 20.0886 4.10021 17.6875 2.20828C19.5048 0.774316 21.7527 -0.00378786 24.0672 1.38651e-05C29.7677 1.38651e-05 34.3898 4.62455 34.3898 10.3289Z" fill="#C4C4C4"/>
</g>
</g>
<defs>
<clipPath id="clip0_76_5863">
<rect width="33.7823" height="26" fill="white" transform="translate(0.984375)"/>
</clipPath>
</defs>
</svg>
