<svg width="46" height="14" viewBox="0 0 46 14" fill="none" xmlns="http://www.w3.org/2000/svg">
<g opacity="0.5" clip-path="url(#clip0_76_5872)">
<mask id="mask0_76_5872" style="mask-type:alpha" maskUnits="userSpaceOnUse" x="0" y="0" width="46" height="14">
<path fill-rule="evenodd" clip-rule="evenodd" d="M0.21875 0.911621H45.3208V14.0001H0.21875V0.911621Z" fill="white"/>
</mask>
<g mask="url(#mask0_76_5872)">
<path fill-rule="evenodd" clip-rule="evenodd" d="M4.4037 14.0001V6.98815H4.86773L7.19309 14.0001H9.05268L11.378 6.98815H11.8429V14.0001H16.027V0.911621H11.8429C11.8429 0.911621 10.6339 0.911621 9.98334 2.78152C8.49497 7.17575 8.12288 8.39035 8.12288 8.39035C8.12288 8.39035 7.93814 7.73593 6.26416 2.78152C5.61365 0.911621 4.4037 0.911621 4.4037 0.911621H0.21875V14.0001H4.4037ZM17.8875 0.911621V14.0001H21.6084C21.6084 14.0001 22.5373 14.0001 23.0014 13.0655L26.2565 6.52132H26.7214V14.0001H30.9072V0.911621H27.1872C27.1872 0.911621 26.2565 1.00499 25.7916 1.84614L22.5373 8.39035H22.0724V0.911621H17.8875V0.911621ZM32.7659 6.98815V14.0001H36.9509V10.2603H40.6718C42.717 10.2603 44.4838 8.85805 45.0432 6.98815H32.7651H32.7659ZM45.3208 5.59292C45.3208 5.87388 45.3208 6.24821 45.2271 6.52918H38.3473C35.2786 6.52918 32.4884 3.81376 32.0244 0.911621H40.6718C43.2747 0.911621 45.3208 2.97087 45.3208 5.59292Z" fill="#0B1424"/>
</g>
</g>
<defs>
<clipPath id="clip0_76_5872">
<rect width="45.102" height="13.0884" fill="white" transform="translate(0.21875 0.911621)"/>
</clipPath>
</defs>
</svg>
