<svg width="36" height="23" viewBox="0 0 36 23" fill="none" xmlns="http://www.w3.org/2000/svg">
<g opacity="0.5" clip-path="url(#clip0_76_5861)">
<path fill-rule="evenodd" clip-rule="evenodd" d="M0.871094 22.9999H35.5378V0.537354H0.871094V22.9999ZM1.35209 22.53H35.0559V1.00734H1.35209V22.53ZM15.4805 7.59147L13.7836 15.4577H15.8367L17.5336 7.59147H15.4805ZM27.8686 12.6715L27.2472 9.71764L26.1674 12.6715H27.8686ZM28.2084 14.2827H25.5763L25.149 15.4577H22.9936L26.0729 8.16945C26.1441 7.99705 26.2654 7.84985 26.4212 7.74683C26.5771 7.64382 26.7604 7.5897 26.9474 7.59147H28.6972L30.3551 15.4577H28.458L28.2084 14.2827ZM23.1002 12.89C23.0942 14.5238 21.6832 15.5812 19.527 15.5812C18.6109 15.5717 17.7252 15.3817 17.2459 15.1631L17.6177 13.4404C18.0952 13.6598 18.6924 13.9518 19.7254 13.9363C20.3148 13.9276 20.9483 13.6944 20.9535 13.1665C20.957 12.8227 20.6883 12.5747 19.8875 12.1885C19.1118 11.8118 18.0788 11.1803 18.0926 10.0494C18.1039 8.51762 19.5313 7.44892 21.5602 7.44892C22.3506 7.44892 22.9858 7.61825 23.4798 7.79536L23.1202 9.4645C22.2015 9.04463 21.3903 9.07573 21.0956 9.11288C20.5028 9.18977 20.2324 9.48956 20.2255 9.7712C20.2064 10.6991 23.1098 10.8149 23.1002 12.89ZM12.4446 7.59147L10.31 12.9453L9.44589 8.39407C9.34363 7.88607 8.94323 7.59147 8.49863 7.59147H5.00596L4.95743 7.82042C5.67416 7.9742 6.48883 8.22301 6.98283 8.48911C7.28443 8.65326 7.37109 8.79408 7.46989 9.18027L9.10616 15.4577H11.2754L14.6008 7.59147H12.4446ZM2.79683 21.1217H33.612V18.3044H2.79683V21.1217ZM2.79683 5.33744H33.612V2.4579H2.79683V5.33744Z" fill="#0B1424"/>
</g>
<defs>
<clipPath id="clip0_76_5861">
<rect width="34.6667" height="22.4626" fill="white" transform="translate(0.871094 0.537354)"/>
</clipPath>
</defs>
</svg>
