<svg width="329" height="43" viewBox="0 0 329 43" fill="none" xmlns="http://www.w3.org/2000/svg">
<path d="M0.144 29.416C0.144 32.92 2.16 35.944 7.152 35.944C12.192 35.944 16.56 32.2 20.736 28.504L28.656 28.072C29.52 28.024 31.392 26.776 31.392 25.768C31.392 24.952 30.912 24.424 29.52 24.424C28.512 24.424 27.744 24.52 26.88 24.616C26.112 24.712 25.344 24.808 24.24 24.808C26.4 22.36 28.704 19.528 30.768 16.648C31.344 24.856 32.4 33.16 34.944 41.512C35.184 42.232 35.904 42.472 36.624 42.472C37.824 42.472 39.552 41.608 39.552 40.216L39.456 39.832C36.912 29.704 35.424 19.384 35.424 8.968C35.424 8.008 34.656 7.528 33.936 7.528C32.832 7.528 30.768 8.968 30.432 9.976C27.456 14.872 23.568 20.104 19.248 24.616H18.624C17.28 24.616 15.696 25.48 15.696 26.68C15.696 27.064 15.888 27.4 16.08 27.64C13.68 29.944 10.944 32.152 8.256 32.152C6.48 32.152 4.992 31.048 4.992 28.504C4.992 27.016 5.904 22.504 7.968 22.504C8.256 22.6 8.448 22.6 8.592 22.6C9.6 22.6 11.808 20.872 11.808 20.152C11.808 19.336 10.032 18.808 9.072 18.808C4.128 18.808 0.144 24.664 0.144 29.416ZM42.7961 31.192C42.7961 33.832 44.2361 37.528 47.6921 37.528C51.0521 37.528 56.0441 32.248 56.0441 31C56.0441 29.8 54.2201 29.56 53.5481 29.56C53.0201 30.04 52.6361 30.424 52.3001 30.856C51.3881 31.864 50.2361 33.16 49.0361 33.16C48.2681 33.16 47.7401 31.768 47.7401 30.472C47.7401 17.704 54.9401 4.264 58.6361 4.264C59.9321 4.264 62.1401 2.152 62.1401 1.384C62.1401 0.663999 61.8521 0.231998 60.2201 0.231998C49.7561 0.231998 42.7961 21.832 42.7961 31.192ZM55.1321 31.864C55.1321 34.648 56.5241 37 59.0681 37C62.4281 37 66.8441 32.248 66.8441 31C66.8441 29.8 65.0201 29.56 64.3481 29.56C63.8201 30.04 63.4361 30.424 63.1481 30.808L63.1961 30.76C62.5241 31.624 61.5641 32.632 60.3641 32.632C60.2201 32.632 60.1241 32.2 60.1241 31.144C60.1241 22.744 65.4521 8.008 67.6601 8.008C69.0041 8.008 70.9721 6.472 70.9721 5.608C70.9721 4.888 70.6361 4.456 69.0041 4.456C59.4521 4.456 55.1321 26.344 55.1321 31.864ZM84.075 34.888C84.075 35.848 84.699 36.232 85.659 36.232C86.955 36.232 88.011 35.416 88.443 34.744C90.507 31.384 96.027 23.176 98.667 21.832C98.667 22.024 98.619 22.312 98.619 22.504C98.475 24.088 98.283 26.92 98.283 30.328C98.283 34.312 99.147 37 101.739 37C102.555 37 105.243 36.136 105.243 34.888C105.243 34.024 104.619 33.448 103.467 33.448C103.371 33.448 103.131 33.496 103.035 33.496C102.891 33.544 102.795 33.544 102.747 33.544C102.795 33.544 102.795 31.384 102.795 29.896C102.795 26.824 103.035 24.856 103.131 23.512C103.227 22.84 103.275 22.12 103.275 21.544C103.275 20.008 103.179 17.608 101.019 17.608C98.331 17.608 94.299 20.776 91.515 23.704C91.803 22.456 92.187 21.112 92.187 20.104C92.187 18.76 91.755 17.032 90.171 17.032C88.971 17.032 87.195 18.28 87.195 19C87.195 19.384 87.291 19.72 87.435 19.96C87.483 20.248 87.627 20.488 87.627 20.728C87.627 23.8 85.851 29.176 84.843 32.296C84.411 33.64 84.075 34.456 84.075 34.888ZM107.172 31.72C107.172 35.56 110.1 37 112.452 37C117.444 37 122.436 31.72 122.436 31C122.436 30.232 121.668 29.608 120.9 29.608C119.652 29.608 118.836 30.328 117.828 31.24C116.82 32.152 115.572 33.208 113.652 33.208C112.884 33.208 111.924 32.584 111.924 30.712C111.924 29.848 112.068 28.84 112.404 27.736C116.244 26.824 122.004 24.424 122.004 20.44C122.004 18.232 120.084 17.032 118.068 17.032C112.692 17.032 107.172 25.096 107.172 31.72ZM116.724 20.632C117.108 20.632 117.54 20.872 117.54 21.112C117.54 21.736 115.908 22.6 114.276 23.32C115.188 21.736 116.052 20.632 116.724 20.632ZM113.316 25.288C113.604 24.616 113.94 23.944 114.276 23.32C113.556 23.608 112.836 23.896 112.212 24.088L113.316 25.288ZM124.883 18.808C124.883 19.48 125.075 19.528 125.363 19.912C125.939 20.536 127.187 22.072 127.187 26.584C127.187 28.312 126.995 29.848 126.851 31.24C126.755 32.488 126.611 33.928 126.611 35.608C126.611 36.184 127.619 37.048 128.483 37.048C129.443 37.048 131.075 36.136 131.459 35.56C133.043 32.872 134.771 30.088 136.499 27.448C137.507 33.496 140.963 36.424 145.139 36.424C151.715 36.424 158.867 29.8 158.867 23.992C158.867 20.488 157.043 16.312 152.771 16.312C150.755 16.312 146.579 17.992 146.579 20.728C146.579 21.64 147.251 22.12 148.307 22.12C149.267 22.12 149.939 21.688 150.467 21.256C150.851 20.968 151.379 20.584 152.291 20.584C153.539 20.584 154.259 22.504 154.259 24.376C154.259 28.36 150.419 32.824 146.051 32.824C142.835 32.824 140.867 27.832 140.867 23.272C140.867 21.592 141.251 20.584 141.443 20.056C141.539 19.864 141.683 19.912 141.683 19.288C141.683 18.232 140.963 17.992 140.099 17.992C139.187 17.992 137.699 18.52 137.315 18.904C135.443 21.688 133.523 24.52 131.747 27.256V27.304V27.208V26.968C131.747 22.696 131.171 16.696 127.715 16.696C126.563 16.696 124.883 17.752 124.883 18.808ZM131.747 27.256V27.304V27.208V27.256ZM176.514 32.632C176.514 34.696 177.186 36.088 178.674 36.088C181.794 36.088 186.93 30.52 191.202 25.912H191.154L191.73 25.24C191.346 27.064 190.962 29.272 190.962 31.72C190.962 34.216 191.922 37 194.658 37C196.002 37 197.97 34.84 197.97 33.688C197.97 33.688 195.714 33.64 195.714 30.952C195.714 27.832 196.77 23.272 197.394 20.68C197.586 19.816 197.73 19.096 197.778 18.856C197.778 18.616 196.194 16.984 196.002 16.984C194.61 16.984 192.69 18.664 191.394 20.008C190.194 18.472 188.994 18.088 187.458 18.088C182.37 18.088 176.514 27.064 176.514 32.632ZM181.842 30.088C182.61 26.68 184.482 22.072 186.498 22.072C187.41 22.072 187.938 22.552 188.37 23.224L181.842 30.088ZM202.161 35.512C202.161 36.712 202.497 36.952 203.601 36.952C206.385 36.952 207.009 33.928 207.585 31.48L207.921 30.28L207.873 30.328C208.689 27.4 212.577 20.68 214.497 20.68C215.409 20.68 215.649 21.688 215.649 23.368C215.649 24.808 214.833 26.584 214.017 27.256C214.017 28.6 214.881 29.272 215.793 29.272C218.337 29.272 220.209 24.952 220.209 22.84C220.209 19.672 218.577 17.032 215.361 17.032C213.057 17.032 211.185 18.472 209.793 20.152C209.697 18.808 209.265 17.032 207.393 17.032C206.385 17.032 204.561 17.944 204.561 19.576C204.561 19.576 204.849 19.912 204.849 20.296C204.849 22.888 203.505 30.088 202.209 35.32L202.161 35.512ZM222.036 35.512C222.036 36.712 222.372 36.952 223.476 36.952C226.26 36.952 226.884 33.928 227.46 31.48L227.796 30.28L227.748 30.328C228.564 27.4 232.452 20.68 234.372 20.68C235.284 20.68 235.524 21.688 235.524 23.368C235.524 24.808 234.708 26.584 233.892 27.256C233.892 28.6 234.756 29.272 235.668 29.272C238.212 29.272 240.084 24.952 240.084 22.84C240.084 19.672 238.452 17.032 235.236 17.032C232.932 17.032 231.06 18.472 229.668 20.152C229.572 18.808 229.14 17.032 227.268 17.032C226.26 17.032 224.436 17.944 224.436 19.576C224.436 19.576 224.724 19.912 224.724 20.296C224.724 22.888 223.38 30.088 222.084 35.32L222.036 35.512ZM241.671 33.304C241.671 35.368 242.727 37 244.503 37C248.247 37 250.983 32.056 250.983 31.96C250.983 31.048 250.215 30.664 249.303 30.664C248.439 30.664 247.335 31.576 246.375 32.296C246.567 29.32 247.863 25.24 248.823 22.312C249.399 20.488 249.879 19.144 249.879 18.472C249.879 17.368 249.303 17.08 248.391 17.08C247.335 17.08 246.087 17.512 245.463 18.712C244.071 21.208 241.671 29.848 241.671 33.304ZM248.007 12.904C248.007 13.912 248.919 14.104 249.399 14.104C251.127 14.104 254.151 12.52 254.151 11.656C254.151 10.456 253.239 10.072 252.375 10.072C250.215 10.072 248.007 10.888 248.007 12.904ZM252.293 19.192C252.293 19.528 252.389 19.864 252.677 20.152C254.645 22.648 255.317 26.488 255.989 30.04V29.992C256.373 32.008 256.709 34.072 257.333 35.992L257.285 35.896C257.429 36.52 257.909 37 258.677 37C262.613 37 270.725 27.112 270.725 21.832C270.725 20.536 269.669 17.032 267.797 17.032C266.597 17.032 264.773 18.136 264.773 19.24C264.773 19.672 264.917 19.912 265.205 20.344C265.541 20.776 265.973 21.448 265.973 22.456C265.973 25.336 263.237 29.08 260.837 31.624C260.357 29.848 260.453 29.464 260.213 27.832C259.733 24.376 259.061 20.584 256.901 17.896C256.277 17.272 255.701 17.032 255.173 17.032C253.877 17.032 252.293 18.088 252.293 19.192ZM272.842 32.632C272.842 34.696 273.514 36.088 275.002 36.088C278.122 36.088 283.258 30.52 287.53 25.912H287.482L288.058 25.24C287.674 27.064 287.29 29.272 287.29 31.72C287.29 34.216 288.25 37 290.986 37C292.33 37 294.298 34.84 294.298 33.688C294.298 33.688 292.042 33.64 292.042 30.952C292.042 27.832 293.098 23.272 293.722 20.68C293.914 19.816 294.058 19.096 294.106 18.856C294.106 18.616 292.522 16.984 292.33 16.984C290.938 16.984 289.018 18.664 287.722 20.008C286.522 18.472 285.322 18.088 283.786 18.088C278.698 18.088 272.842 27.064 272.842 32.632ZM278.17 30.088C278.938 26.68 280.81 22.072 282.826 22.072C283.738 22.072 284.266 22.552 284.698 23.224L278.17 30.088ZM298.633 31.864C298.633 34.648 300.025 37 302.569 37C305.929 37 310.345 32.248 310.345 31C310.345 29.8 308.521 29.56 307.849 29.56C307.321 30.04 306.985 30.424 306.649 30.808L306.697 30.76C306.025 31.624 305.113 32.632 303.913 32.632C303.721 32.632 303.625 32.2 303.625 31.144C303.625 22.744 308.953 8.008 311.209 8.008C312.505 8.008 314.473 6.472 314.473 5.608C314.473 4.888 314.185 4.456 312.505 4.456C302.953 4.456 298.633 26.344 298.633 31.864ZM311.202 31.912C311.202 35.032 314.034 37.384 318.258 37.384C322.05 37.384 325.794 35.512 325.794 31.912C325.794 29.464 323.826 27.784 321.906 26.344C320.562 25.288 319.17 24.184 319.17 23.128C319.17 21.064 322.434 19.432 325.17 19.432C325.602 19.432 325.794 19.48 325.938 19.528C325.986 19.528 326.178 19.576 326.226 19.576C327.33 19.576 328.914 18.184 328.914 17.272C328.914 16.792 327.954 15.88 326.514 15.88C321.426 15.88 314.274 18.184 314.274 23.224C314.274 26.776 316.818 28.504 319.026 30.04C320.274 30.856 321.33 31.576 321.33 32.296C321.33 33.16 319.986 33.736 318.642 33.736C317.346 33.736 316.098 33.112 316.098 31.48C316.098 30.328 315.282 29.944 314.274 29.944C312.93 29.944 311.202 30.904 311.202 31.912Z" fill="white"/>
</svg>
