<svg width="40" height="40" viewBox="0 0 40 40" fill="none" xmlns="http://www.w3.org/2000/svg">
<mask id="path-1-inside-1_76_1005" fill="white">
<path fill-rule="evenodd" clip-rule="evenodd" d="M36.1544 3.69589C31.7165 -1.23197 24.5212 -1.23197 20.0833 3.69589L19.7412 4.07575L19.3995 3.69632C14.9616 -1.23154 7.76634 -1.23154 3.32843 3.69632C-1.10947 8.62419 -1.10947 16.6138 3.32844 21.5417L19.7282 39.7521L19.7416 39.7372L19.7546 39.7516L36.1544 21.5413C40.5923 16.6134 40.5923 8.62375 36.1544 3.69589Z"/>
</mask>
<path d="M20.0833 3.69589L19.3402 3.02669L19.3402 3.02669L20.0833 3.69589ZM36.1544 3.6959L35.4113 4.3651V4.3651L36.1544 3.6959ZM19.7412 4.07575L18.9981 4.74495L19.7412 5.57007L20.4843 4.74495L19.7412 4.07575ZM19.3995 3.69633L18.6564 4.36553L18.6564 4.36553L19.3995 3.69633ZM3.32843 3.69633L2.58535 3.02713L3.32843 3.69633ZM3.32844 21.5417L4.07152 20.8725L3.32844 21.5417ZM19.7282 39.7521L18.9851 40.4213L19.7282 41.2464L20.4713 40.4212L19.7282 39.7521ZM19.7416 39.7372L20.4847 39.068L19.7416 38.2428L18.9985 39.068L19.7416 39.7372ZM19.7546 39.7516L19.0115 40.4208L19.7546 41.246L20.4977 40.4208L19.7546 39.7516ZM36.1544 21.5413L36.8975 22.2105L36.1544 21.5413ZM20.8264 4.36509C24.8671 -0.1217 31.3706 -0.121697 35.4113 4.3651L36.8975 3.0267C32.0623 -2.34223 24.1753 -2.34223 19.3402 3.02669L20.8264 4.36509ZM20.4843 4.74495L20.8264 4.36509L19.3402 3.02669L18.9981 3.40655L20.4843 4.74495ZM18.6564 4.36553L18.9981 4.74495L20.4843 3.40655L20.1426 3.02713L18.6564 4.36553ZM4.07151 4.36553C8.11221 -0.121274 14.6157 -0.121272 18.6564 4.36553L20.1426 3.02713C15.3075 -2.3418 7.42047 -2.34181 2.58535 3.02713L4.07151 4.36553ZM4.07152 20.8725C-0.023835 16.325 -0.0238407 8.91302 4.07151 4.36553L2.58535 3.02713C-2.19512 8.33537 -2.19511 16.9027 2.58535 22.2109L4.07152 20.8725ZM20.4713 39.0829L4.07152 20.8725L2.58535 22.2109L18.9851 40.4213L20.4713 39.0829ZM18.9985 39.068L18.9851 39.0829L20.4713 40.4212L20.4847 40.4064L18.9985 39.068ZM20.4977 39.0824L20.4847 39.068L18.9985 40.4064L19.0115 40.4208L20.4977 39.0824ZM35.4113 20.8721L19.0115 39.0824L20.4977 40.4208L36.8975 22.2105L35.4113 20.8721ZM35.4113 4.3651C39.5067 8.91258 39.5067 16.3246 35.4113 20.8721L36.8975 22.2105C41.6779 16.9022 41.6779 8.33493 36.8975 3.0267L35.4113 4.3651Z" fill="#11405A" mask="url(#path-1-inside-1_76_1005)"/>
</svg>
