<?xml version="1.0" encoding="utf-8"?>
<!-- Generator: Adobe Illustrator 24.0.2, SVG Export Plug-In . SVG Version: 6.00 Build 0)  -->
<svg version="1.1" id="Слой_1" xmlns="http://www.w3.org/2000/svg" xmlns:xlink="http://www.w3.org/1999/xlink" x="0px" y="0px"
	 viewBox="0 0 34 19" style="enable-background:new 0 0 34 19;" xml:space="preserve">
<style type="text/css">
	.st0{clip-path:url(#SVGID_2_);fill:#180087;}
	.st1{clip-path:url(#SVGID_2_);fill:#FFFFFF;}
	.st2{clip-path:url(#SVGID_2_);fill:#EA0020;}
</style>
<g id="AUSTRALIA_2_">
	<g>
		<g>
			<defs>
				<rect id="SVGID_1_" x="0.3" y="-0.1" width="33.6" height="19.6"/>
			</defs>
			<clipPath id="SVGID_2_">
				<use xlink:href="#SVGID_1_"  style="overflow:visible;"/>
			</clipPath>
			<rect x="0.3" y="-0.1" class="st0" width="33.6" height="19.6"/>
			<polygon class="st1" points="9.1,11.9 9.6,13.5 11.2,12.9 10.3,14.3 11.7,15.2 10,15.3 10.3,17 9.1,15.7 8,17 8.2,15.3 6.5,15.2 
				8,14.3 7,12.9 8.6,13.5 			"/>
			<polygon class="st1" points="26.8,14.8 27,15.5 27.8,15.3 27.3,15.9 28,16.3 27.2,16.4 27.3,17.2 26.8,16.6 26.2,17.2 26.3,16.4 
				25.5,16.3 26.2,15.9 25.8,15.3 26.5,15.5 			"/>
			<polygon class="st1" points="22.4,7.8 22.6,8.5 23.3,8.3 22.9,8.9 23.6,9.3 22.8,9.4 22.9,10.2 22.4,9.6 21.8,10.2 21.9,9.4 
				21.1,9.3 21.8,8.9 21.4,8.3 22.1,8.5 			"/>
			<polygon class="st1" points="26.8,3 27,3.8 27.8,3.5 27.3,4.1 28,4.5 27.2,4.6 27.3,5.4 26.8,4.8 26.2,5.4 26.3,4.6 25.5,4.5 
				26.2,4.1 25.8,3.5 26.5,3.8 			"/>
			<polygon class="st1" points="30.7,6.6 30.9,7.4 31.7,7.1 31.2,7.7 31.9,8.2 31.1,8.2 31.3,9 30.7,8.4 30.2,9 30.3,8.2 29.5,8.2 
				30.2,7.7 29.7,7.1 30.5,7.4 			"/>
			<polygon class="st1" points="28.5,10.2 28.7,10.6 29.2,10.7 28.9,11 29,11.5 28.5,11.2 28.1,11.5 28.2,11 27.8,10.7 28.4,10.6 
							"/>
			<polygon class="st1" points="7.6,-0.1 7.6,2.9 0.3,2.9 0.3,5.8 7.6,5.8 7.6,8.8 10.6,8.8 10.6,5.8 17.9,5.8 17.9,2.9 10.6,2.9 
				10.6,-0.1 			"/>
			<polygon class="st1" points="0.3,-0.1 0.3,0.9 16,8.8 17.9,8.8 17.9,7.8 2.3,-0.1 			"/>
			<polygon class="st1" points="16,-0.1 0.3,7.8 0.3,8.8 2.3,8.8 17.9,0.9 17.9,-0.1 			"/>
			<polygon class="st2" points="8.2,-0.1 8.2,3.5 0.3,3.5 0.3,5.2 8.2,5.2 8.2,8.8 10,8.8 10,5.2 17.9,5.2 17.9,3.5 10,3.5 10,-0.1 
							"/>
			<path class="st2" d="M0.3-0.1v0.7l4.6,2.3h1.3L0.3-0.1z M16.6-0.1l-5.9,2.9h1.3l5.9-2.9H16.6z"/>
			<path class="st2" d="M6.2,5.8L0.3,8.8h1.3l5.9-2.9H6.2z M12.1,5.8l5.9,2.9V8.1l-4.6-2.3H12.1z"/>
		</g>
	</g>
</g>
</svg>
