<svg width="180" height="532" viewBox="0 0 180 532" fill="none" xmlns="http://www.w3.org/2000/svg">
<path d="M51.3946 456.138C54.952 458.916 57.8622 462.436 59.9233 466.452C61.7543 470.115 63.8263 497.78 65.585 532H75.9207C75.2461 504.769 74.7642 484.429 74.9329 483.948C79.6068 471.272 87.9428 461.994 100.567 447.968C103.94 444.209 107.795 439.944 111.891 435.22C147.427 394.445 175.061 304.148 180 287.375C155.691 308.076 74.4028 461.56 73.5596 463.15L71.5117 467.03L71.7286 462.644C73.7524 422.93 65.9223 399.169 65.85 398.928L65.7055 398.518L65.9464 398.132C66.0669 397.916 79.1972 376.203 104.494 310.245C125.623 255.397 116.878 201.271 113.288 184.475C111.337 199.199 104.591 240.769 87.0273 272.458C65.6332 311.016 58.1163 376.347 58.1163 376.347C55.7071 353.598 32.6506 324.487 32.4338 324.198L32.0965 323.788L32.2652 323.306C69.1025 203.946 55.2493 112.589 52.1655 95.7918C13.4008 175.317 21.7608 300.413 21.8572 301.666L22.0259 303.907L20.2912 302.485C7.47405 292.075 -20.6659 251.71 -25.4844 242.408C-29.026 235.756 -28.2069 231.901 -21.7742 201.994C-19.3649 191.246 -16.3052 176.522 -12.3781 157.026C-0.331899 97.2136 -20.8346 59.2102 -27.6527 48.5827C-26.3517 63.0419 -22.4247 115.914 -31.7244 148.64C-42.4214 186.21 -35.4105 232.985 -35.3382 233.419L-34.9046 236.311C-46.228 224.96 -67.2366 208.115 -67.4294 207.971L-67.7185 207.778V207.44C-70.4168 198.235 -70.4891 195.006 -71.0432 169.726C-71.2601 159.46 -71.5733 145.387 -72.1756 125.746C-73.838 70.9462 -92.0759 38.9915 -98.6773 29.3521C-96.6535 43.1605 -90.2449 89.5985 -92.0036 114.468C-94.0274 143.555 -77.7891 198.066 -77.5482 198.596L-76.8977 200.741L-78.8973 199.753C-88.5343 194.933 -113.446 162.376 -114.506 160.978L-114.699 160.713V160.496C-114.795 111.239 -154.307 34.7742 -161.318 21.8333C-167.871 45.9319 -128.6 145.772 -128.19 146.808L-127.106 149.532L-129.516 147.989C-136.047 143.724 -142.241 138.963 -148.043 133.747C-157.68 125.072 -169.726 112.564 -185.145 85.5499C-214.731 33.2801 -265.903 5.73546 -277.491 0C-271.95 11.7842 -244.485 65.0661 -178.712 119.649C-168.473 128.132 -140.164 149.483 -134.214 155.002C-120.625 167.606 -98.5327 188.74 -92.8228 196.765L-92.1964 198.645L-94.0515 197.994C-95.1597 197.608 -200.709 161.292 -224.657 154.978C-228.511 153.966 -233.595 152.761 -239.498 151.387C-268.312 144.591 -314.835 133.747 -335 116.276C-326.077 130.176 -314.715 142.348 -301.463 152.207C-275.829 171.871 -228.584 196.138 -149.127 200.018C-145.796 200.199 -142.459 200.199 -139.128 200.018C-128.624 199.44 -92.1241 199.367 -62.3459 222.743C-27.3154 250.24 -13.1973 275.543 -13.0768 275.76L-11.7276 278.17L-14.2814 277.109C-15.0042 276.796 -86.0769 247.203 -124.721 245.492C-133.539 245.107 -143.007 245.01 -153.006 244.914C-185.579 244.576 -222.368 244.191 -246.075 232.864C-242.485 238.528 -228.608 253.782 -177.267 271.422C-164.929 275.627 -153.136 281.29 -142.14 288.291C-121.87 301.378 -99.8911 311.604 -76.8254 318.68C-54.8049 325.138 -32.0857 326.319 -13.8478 327.283C5.85986 328.319 21.4236 329.138 27.6635 335.982C33.1807 342.007 51.3946 363.792 54.7434 391.216L54.9602 393.048L53.3219 392.18C52.2619 391.626 -52.6848 337.26 -150.5 341.236L-153.777 341.38C-145.874 346.465 -120.409 361.985 -101.906 364.009H-101.568L-101.327 364.25C-100.653 364.949 -34.2781 433.75 33.5903 447.824C40.1029 449.135 46.2075 451.986 51.3946 456.138ZM20.8695 324.053C-3.19889 301.063 -113.35 284.845 -113.35 284.845C-113.35 284.845 -35.6032 280.941 -9.75205 289.906C-3.63752 292.109 1.72612 296.003 5.71529 301.136C6.43806 301.931 7.13675 302.75 7.90771 303.546C13.4068 309.432 18.2534 315.896 22.3632 322.824L25.5675 328.512L20.8695 324.053ZM-44.662 378.348L-41.7709 378.082C10.9193 373.263 57.8754 405.217 58.3332 405.531L58.6223 405.748V406.061C62.5265 419.916 63.5514 434.425 61.6339 448.691V448.691C45.251 435.799 -9.36658 400.494 -42.3009 379.89L-44.662 378.348Z" fill="#E16752"/>
</svg>
