<svg width="36" height="44" viewBox="0 0 36 44" fill="none" xmlns="http://www.w3.org/2000/svg">
<path fill-rule="evenodd" clip-rule="evenodd" d="M0.176009 16.2343C0.92056 7.20164 8.46878 0.25 17.5321 0.25H18.468C27.5313 0.25 35.0795 7.20164 35.8241 16.2343C36.225 21.0976 34.7227 25.9267 31.6338 29.7044L21.2488 42.4049C19.5697 44.4584 16.4304 44.4584 14.7513 42.4049L4.3663 29.7044C1.27738 25.9267 -0.224863 21.0976 0.176009 16.2343ZM25.649 15.4824C26.2837 14.8478 26.2837 13.8189 25.649 13.1843C25.0144 12.5497 23.9856 12.5497 23.351 13.1843L16.9167 19.6186L13.7324 16.4343C13.0978 15.7997 12.0689 15.7997 11.4343 16.4343C10.7997 17.0689 10.7997 18.0978 11.4343 18.7324L15.7676 23.0657C16.4022 23.7003 17.4311 23.7003 18.0657 23.0657L25.649 15.4824Z" fill="#E16752"/>
</svg>
