<svg width="230" height="384" viewBox="0 0 230 384" fill="none" xmlns="http://www.w3.org/2000/svg">
<path d="M72.1902 117.277C76.4541 116.862 80.0863 116.507 82.9684 116.31C100.498 115.086 179.696 115.461 180.465 115.461H181.847L181.018 114.336C175.333 110.19 155.691 101.09 143.689 95.7205C138.438 93.3517 114.573 85.4753 105.749 82.0997C49.1928 60.3855 18.5756 30.8738 12.1798 24.241C21.2603 25.4452 61.9252 32.2951 93.6873 60.6223C110.17 75.3091 121.087 80.9746 129.595 84.5673C134.664 86.7479 139.89 88.5428 145.229 89.9366L147.203 90.4104L145.861 88.8312C145.348 88.2192 96.2141 30.1236 95.1283 12.4364C102.728 19.5626 146.749 61.8857 157.863 95.0099V95.227L158.06 95.3455C159.087 96.0364 183.269 112.283 190.79 113.289L192.369 113.506L191.441 112.204C191.224 111.868 167.891 78.961 162.64 58.9049C158.12 41.7704 143.275 12.0613 138.774 3.25714C145.505 8.38961 165.009 25.7413 178.57 62.0634C183.446 75.1314 186.842 84.5081 189.349 91.3579C195.468 108.196 196.238 110.348 200.166 115.915L200.304 116.112H200.541C200.699 116.112 218.643 122.686 228.849 127.739L227.882 125.884C227.724 125.588 212.385 95.7798 211.004 68.1236C209.819 44.0208 195.211 9.35688 190.967 0C197.995 5.60623 220.459 26.4322 225.947 69.3673C227.743 83.3631 228.967 93.9636 229.895 101.722C232.363 123.258 232.678 126.022 236.587 129.694C242.035 134.806 270.145 155.534 281.062 159.62L282.562 160.172L281.95 158.692C281.595 157.863 247.484 75.7829 255.419 13.5221C261.341 24.1029 291.445 82.3169 293.854 170.852V171.227L294.169 171.424C294.387 171.563 316.555 185.855 323.306 200.601C323.306 200.601 313.574 155.04 319.161 124.206C323.721 98.9185 318.805 69.466 316.752 59.0629C322.99 69.5252 341.191 103.893 339.493 145.545C337.519 195.626 333.571 213.195 333.571 213.372V213.669L333.768 213.925C333.867 214.083 344.547 228.237 352.225 255.38L353.074 258.38L353.568 255.301C353.765 254.037 373.427 132.457 385.054 113.013C385.567 125.39 387.541 192.349 372.973 227.803C371.275 231.928 369.676 235.699 368.255 238.956C362.964 251.254 359.49 259.387 359.233 268.961C359.115 269.751 379.921 325.793 393.739 363.556V383.04C381.046 346.56 349.6 265.131 345.06 260.65C342.752 258.439 340 256.743 336.986 255.676C332.563 254.093 327.826 253.586 323.168 254.195C274.311 260.117 214.063 229.105 213.451 228.809L213.234 228.691H212.978C200.087 231.553 179.419 226.914 173.004 225.315L175.155 224.467C240.022 199.495 322.852 212.129 323.701 212.267L324.984 212.464L324.411 211.3C315.923 193.534 298.749 183.15 293.656 180.367C287.892 177.189 277.252 180.189 263.789 183.979C251.313 187.493 235.778 191.875 219.512 192.547C202.403 193.066 185.304 191.22 168.7 187.059C159.74 184.848 150.549 183.708 141.321 183.663C102.827 183.663 89.9959 176.478 86.3439 173.497C104.821 175.629 129.615 167.575 151.487 160.311C158.317 158.159 164.752 156.027 170.674 154.329C197.047 146.67 251.609 150.381 252.063 150.381L254.037 150.519L252.577 149.197C252.438 149.059 237.179 135.379 207.391 124.778C182.064 115.856 157.567 124.225 150.638 127.009C148.444 127.893 146.203 128.658 143.926 129.299C89.68 144.815 52.4302 139.287 30.7159 131.924C19.5657 128.321 9.15949 122.73 2.56327e-05 115.421C17.5491 122.587 51.2852 119.31 72.1902 117.277ZM256.604 224.427L254.63 225.256L256.604 225.73C283.411 232.027 328.142 243.338 342.079 248.273C340.127 238.257 336.136 228.749 330.353 220.341L330.215 220.143H329.978C329.722 219.946 290.912 209.207 256.604 224.427ZM187.236 178.195C187.236 178.195 265.013 163.923 286.392 173.951L290.577 175.925L287.142 172.806C282.781 169.092 278.044 165.844 273.008 163.114C272.317 162.758 271.646 162.383 271.034 162.008C267.168 159.498 262.673 158.13 258.064 158.06C238.601 157.883 187.236 178.195 187.236 178.195Z" fill="#104059"/>
</svg>
