<?xml version="1.0" encoding="utf-8"?>
<!-- Generator: Adobe Illustrator 24.0.2, SVG Export Plug-In . SVG Version: 6.00 Build 0)  -->
<svg version="1.1" id="Слой_1" xmlns="http://www.w3.org/2000/svg" xmlns:xlink="http://www.w3.org/1999/xlink" x="0px" y="0px"
	 viewBox="0 0 34 19" style="enable-background:new 0 0 34 19;" xml:space="preserve">
<style type="text/css">
	.st0{clip-path:url(#SVGID_2_);fill:#180087;}
	.st1{clip-path:url(#SVGID_2_);fill:#FFFFFF;}
	.st2{clip-path:url(#SVGID_2_);fill:#EA0020;}
	.st3{clip-path:url(#SVGID_4_);fill:#F4F4F4;}
	.st4{clip-path:url(#SVGID_4_);fill:#323E95;}
	.st5{clip-path:url(#SVGID_4_);fill:#D8001E;}
</style>
<g id="AUSTRALIA_2_">
	<g>
		<g>
			<defs>
				<rect id="SVGID_1_" x="113.7" y="5.3" width="33.6" height="19.6"/>
			</defs>
			<clipPath id="SVGID_2_">
				<use xlink:href="#SVGID_1_"  style="overflow:visible;"/>
			</clipPath>
			<rect x="113.7" y="5.3" class="st0" width="33.6" height="19.6"/>
			<polygon class="st1" points="122.5,17.3 123.1,18.9 124.6,18.3 123.7,19.7 125.1,20.5 123.5,20.7 123.7,22.3 122.5,21.1 
				121.4,22.3 121.6,20.7 120,20.5 121.4,19.7 120.5,18.3 122,18.9 			"/>
			<polygon class="st1" points="140.2,20.2 140.4,20.9 141.2,20.6 140.7,21.3 141.4,21.7 140.6,21.8 140.7,22.6 140.2,22 
				139.7,22.6 139.8,21.8 139,21.7 139.7,21.3 139.2,20.6 140,20.9 			"/>
			<polygon class="st1" points="135.8,13.2 136,13.9 136.8,13.7 136.3,14.3 137,14.7 136.2,14.8 136.3,15.6 135.8,15 135.2,15.6 
				135.3,14.8 134.6,14.7 135.2,14.3 134.8,13.7 135.5,13.9 			"/>
			<polygon class="st1" points="140.2,8.4 140.4,9.2 141.2,8.9 140.7,9.5 141.4,9.9 140.6,10 140.7,10.8 140.2,10.2 139.7,10.8 
				139.8,10 139,9.9 139.7,9.5 139.2,8.9 140,9.2 			"/>
			<polygon class="st1" points="144.1,12 144.4,12.8 145.1,12.5 144.7,13.1 145.4,13.5 144.6,13.6 144.7,14.4 144.1,13.8 
				143.6,14.4 143.7,13.6 142.9,13.5 143.6,13.1 143.1,12.5 143.9,12.8 			"/>
			<polygon class="st1" points="142,15.5 142.2,16 142.7,16.1 142.3,16.4 142.4,16.9 142,16.6 141.5,16.9 141.7,16.4 141.3,16.1 
				141.8,16 			"/>
			<polygon class="st1" points="121.1,5.3 121.1,8.3 113.7,8.3 113.7,11.2 121.1,11.2 121.1,14.1 124,14.1 124,11.2 131.4,11.2 
				131.4,8.3 124,8.3 124,5.3 			"/>
			<polygon class="st1" points="113.7,5.3 113.7,6.3 129.4,14.1 131.4,14.1 131.4,13.2 115.7,5.3 			"/>
			<polygon class="st1" points="129.4,5.3 113.7,13.2 113.7,14.1 115.7,14.1 131.4,6.3 131.4,5.3 			"/>
			<polygon class="st2" points="121.7,5.3 121.7,8.8 113.7,8.8 113.7,10.6 121.7,10.6 121.7,14.1 123.4,14.1 123.4,10.6 131.4,10.6 
				131.4,8.8 123.4,8.8 123.4,5.3 			"/>
			<path class="st2" d="M113.7,5.3V6l4.6,2.3h1.3L113.7,5.3z M130.1,5.3l-5.9,2.9h1.3l5.9-2.9H130.1z"/>
			<path class="st2" d="M119.6,11.2l-5.9,2.9h1.3l5.9-2.9H119.6z M125.5,11.2l5.9,2.9v-0.7l-4.6-2.3H125.5z"/>
		</g>
	</g>
</g>
<g id="RUSSIA_3_">
	<g>
		<g>
			<defs>
				<rect id="SVGID_3_" x="0.3" y="-0.2" width="33.6" height="19.6"/>
			</defs>
			<clipPath id="SVGID_4_">
				<use xlink:href="#SVGID_3_"  style="overflow:visible;"/>
			</clipPath>
			<rect x="0.3" y="-0.2" class="st3" width="33.6" height="6.5"/>
			<rect x="0.3" y="6.3" class="st4" width="33.6" height="6.5"/>
			<rect x="0.3" y="12.8" class="st5" width="33.6" height="6.5"/>
		</g>
	</g>
</g>
</svg>
