<svg width="25" height="25" viewBox="0 0 25 25" fill="none" xmlns="http://www.w3.org/2000/svg">
<mask id="path-1-inside-1_75_761" fill="white">
<path fill-rule="evenodd" clip-rule="evenodd" d="M22.5242 3.06811C19.8101 0.0932016 15.4095 0.0932004 12.6954 3.06811L12.4859 3.29775L12.2766 3.06837C9.56243 0.0934511 5.1619 0.093449 2.44773 3.06836C-0.266432 6.04328 -0.266432 10.8666 2.44773 13.8415L12.4776 24.8349L12.4861 24.8256L12.4944 24.8347L22.5242 13.8412C25.2384 10.8663 25.2384 6.04303 22.5242 3.06811Z"/>
</mask>
<path d="M12.6954 3.06811L11.7043 2.16393V2.16393L12.6954 3.06811ZM22.5242 3.06811L23.5153 2.16393L22.5242 3.06811ZM12.4859 3.29775L11.4948 4.20193L12.4859 5.28819L13.4769 4.20193L12.4859 3.29775ZM12.2766 3.06837L13.2676 2.16418L12.2766 3.06837ZM2.44773 3.06836L3.43878 3.97255L2.44773 3.06836ZM2.44773 13.8415L1.45668 14.7457L2.44773 13.8415ZM12.4776 24.8349L11.4866 25.7391L12.4776 26.8253L13.4686 25.7392L12.4776 24.8349ZM12.4861 24.8256L13.4771 23.9214L12.4861 22.8353L11.4951 23.9214L12.4861 24.8256ZM12.4944 24.8347L11.5033 25.7389L12.4944 26.8251L13.4854 25.7389L12.4944 24.8347ZM22.5242 13.8412L21.5332 12.937L22.5242 13.8412ZM13.6864 3.9723C15.8686 1.58052 19.3511 1.58052 21.5332 3.9723L23.5153 2.16393C20.2691 -1.39412 14.9505 -1.39412 11.7043 2.16393L13.6864 3.9723ZM13.4769 4.20193L13.6864 3.9723L11.7043 2.16393L11.4948 2.39356L13.4769 4.20193ZM11.2855 3.97255L11.4948 4.20193L13.4769 2.39357L13.2676 2.16418L11.2855 3.97255ZM3.43878 3.97255C5.62092 1.58077 9.10341 1.58077 11.2855 3.97255L13.2676 2.16418C10.0215 -1.39387 4.70288 -1.39387 1.45668 2.16418L3.43878 3.97255ZM3.43878 12.9373C1.19194 10.4746 1.19194 6.43525 3.43878 3.97255L1.45668 2.16418C-1.7248 5.65131 -1.7248 11.2585 1.45668 14.7457L3.43878 12.9373ZM13.4687 23.9308L3.43878 12.9373L1.45668 14.7457L11.4866 25.7391L13.4687 23.9308ZM11.4951 23.9214L11.4866 23.9307L13.4686 25.7392L13.4771 25.7299L11.4951 23.9214ZM13.4854 23.9305L13.4771 23.9214L11.4951 25.7298L11.5033 25.7389L13.4854 23.9305ZM21.5332 12.937L11.5033 23.9305L13.4854 25.7389L23.5153 14.7454L21.5332 12.937ZM21.5332 3.9723C23.78 6.435 23.78 10.4743 21.5332 12.937L23.5153 14.7454C26.6968 11.2583 26.6968 5.65106 23.5153 2.16393L21.5332 3.9723Z" fill="white" mask="url(#path-1-inside-1_75_761)"/>
</svg>
