<svg width="29" height="29" viewBox="0 0 29 29" fill="none" xmlns="http://www.w3.org/2000/svg">
<mask id="path-1-inside-1_75_2061" fill="white">
<path fill-rule="evenodd" clip-rule="evenodd" d="M26.5557 2.67952C23.2961 -0.893178 18.0113 -0.893172 14.7518 2.67953L14.5005 2.95489L14.2495 2.67978C10.99 -0.892919 5.7052 -0.892919 2.44565 2.67978C-0.81391 6.25248 -0.813916 12.045 2.44564 15.6177L14.491 28.8202L14.5008 28.8094L14.5104 28.8199L26.5557 15.6174C29.8152 12.0447 29.8152 6.25222 26.5557 2.67952Z"/>
</mask>
<path d="M14.7518 2.67953L15.942 3.7654L15.942 3.7654L14.7518 2.67953ZM26.5557 2.67952L27.7459 1.59365V1.59365L26.5557 2.67952ZM14.5005 2.95489L13.3103 4.04076L14.5005 5.3453L15.6907 4.04076L14.5005 2.95489ZM14.2495 2.67978L15.4397 1.59391V1.59391L14.2495 2.67978ZM2.44565 2.67978L3.63584 3.76566L2.44565 2.67978ZM2.44564 15.6177L1.25545 16.7035H1.25545L2.44564 15.6177ZM14.491 28.8202L13.3008 29.9061L14.491 31.2106L15.6812 29.9061L14.491 28.8202ZM14.5008 28.8094L15.691 27.7236L14.5008 26.419L13.3106 27.7236L14.5008 28.8094ZM14.5104 28.8199L13.3202 29.9058L14.5104 31.2103L15.7005 29.9058L14.5104 28.8199ZM26.5557 15.6174L27.7459 16.7033L26.5557 15.6174ZM15.942 3.7654C18.5626 0.893017 22.7449 0.893014 25.3655 3.7654L27.7459 1.59365C23.8474 -2.67937 17.4601 -2.67936 13.5616 1.59365L15.942 3.7654ZM15.6907 4.04076L15.942 3.7654L13.5616 1.59365L13.3104 1.86902L15.6907 4.04076ZM13.0594 3.76566L13.3103 4.04076L15.6907 1.86902L15.4397 1.59391L13.0594 3.76566ZM3.63584 3.76566C6.25646 0.893271 10.4387 0.893271 13.0594 3.76566L15.4397 1.59391C11.5412 -2.67911 5.15395 -2.67911 1.25545 1.59391L3.63584 3.76566ZM3.63583 14.5318C0.937503 11.5742 0.937506 6.72322 3.63584 3.76566L1.25545 1.59391C-2.56533 5.78175 -2.56533 12.5157 1.25545 16.7035L3.63583 14.5318ZM15.6812 27.7343L3.63583 14.5318L1.25545 16.7035L13.3008 29.9061L15.6812 27.7343ZM13.3106 27.7236L13.3008 27.7343L15.6812 29.9061L15.691 29.8953L13.3106 27.7236ZM15.7005 27.734L15.691 27.7236L13.3106 29.8953L13.3202 29.9058L15.7005 27.734ZM25.3655 14.5315L13.3202 27.734L15.7005 29.9058L27.7459 16.7033L25.3655 14.5315ZM25.3655 3.7654C28.0638 6.72295 28.0638 11.574 25.3655 14.5315L27.7459 16.7033C31.5667 12.5154 31.5666 5.78149 27.7459 1.59365L25.3655 3.7654Z" fill="white" mask="url(#path-1-inside-1_75_2061)"/>
</svg>
